<svg version="1.1" id="Layer_1" xmlns="http://www.w3.org/2000/svg" xmlns:xlink="http://www.w3.org/1999/xlink" x="0px" y="0px"
	 width="100%" viewBox="0 0 1024 1024" enable-background="new 0 0 1024 1024" xml:space="preserve">
<path fill="#000000" opacity="1.000000" stroke="none" 
	d="
M531.089966,493.081665 
	C520.966248,504.916962 512.453003,517.432861 505.359619,530.887634 
	C503.518250,534.380371 500.912323,536.345337 497.232147,537.661560 
	C484.822052,542.100098 472.073761,543.768799 458.950653,543.378235 
	C451.811340,543.165710 451.274353,543.834595 451.270233,551.002319 
	C451.245117,594.821960 451.249023,638.641541 451.202209,682.461182 
	C451.200165,684.368652 451.844330,686.443176 450.410645,688.157471 
	C448.408417,688.716919 447.152588,687.361755 445.872162,686.441528 
	C420.482697,668.195435 402.395416,644.907227 396.020386,613.652283 
	C391.782501,592.875183 393.458527,572.246338 398.095703,551.768494 
	C402.354950,532.959778 407.157227,514.267334 411.054840,495.386292 
	C412.908508,486.406525 412.956940,476.972046 409.473236,468.270355 
	C402.978729,452.048309 392.108459,441.770447 370.916107,445.677338 
	C361.909027,447.337799 352.907104,448.909058 344.150177,451.641815 
	C343.031799,451.990845 341.920990,452.362762 340.630402,451.847870 
	C338.852783,449.894806 340.155334,447.803345 340.698212,445.834106 
	C344.490173,432.078461 353.478607,421.927582 363.850739,412.765564 
	C365.347961,411.442993 366.812836,410.020996 368.503723,408.991608 
	C374.845703,405.130524 377.972198,399.380890 380.253296,392.391754 
	C393.453156,351.948456 429.584259,334.071930 467.297119,337.263489 
	C502.311859,340.226776 526.547546,359.029419 544.659180,387.406097 
	C556.664856,406.216064 568.027405,425.435486 579.838013,444.371704 
	C582.099426,447.997589 581.612854,449.852448 578.025085,452.348419 
	C561.037354,464.166718 544.915588,477.050568 531.089966,493.081665 
M438.713898,383.108002 
	C433.091095,388.738800 432.141083,394.258636 435.802643,400.023102 
	C439.034546,405.111115 445.769470,407.216705 451.649200,404.977325 
	C458.868286,402.227844 462.222992,394.161713 458.937866,387.452148 
	C455.471436,380.372345 447.084381,378.316956 438.713898,383.108002 
z"/>
<path fill="#000000" opacity="1.000000" stroke="none" 
	d="
M666.158936,427.039856 
	C671.398376,425.448120 676.054932,423.097595 681.222961,423.055878 
	C682.443054,424.846130 681.403137,426.191895 680.829712,427.457672 
	C673.339661,443.992249 665.754578,460.483795 658.297791,477.033203 
	C656.921326,480.088043 654.888489,481.970978 651.836304,483.472137 
	C626.600586,495.884430 602.708801,510.345917 583.013977,530.791809 
	C568.940979,545.401428 557.751038,561.752625 553.779236,582.159485 
	C552.202087,590.262512 552.163757,598.402527 553.933655,606.437683 
	C558.358765,626.526733 574.498352,640.227783 595.293274,641.638733 
	C608.439331,642.530701 621.612305,641.905457 634.771179,642.094360 
	C638.758179,642.151550 639.911438,640.439331 639.846069,636.664062 
	C639.670105,626.503174 639.683960,616.335144 639.860596,606.174072 
	C639.924438,602.503113 638.662170,601.181519 634.948547,601.232910 
	C622.953918,601.399048 610.955505,601.312805 598.958679,601.269104 
	C597.031982,601.262024 594.952881,601.798279 593.157349,600.192139 
	C592.815552,597.398071 594.515137,595.164429 595.463745,592.759827 
	C599.862122,581.610596 604.450012,570.535767 608.797607,559.367126 
	C610.121643,555.965759 612.040466,554.559143 615.850098,554.584778 
	C637.509949,554.730469 659.173096,554.742188 680.831543,554.495117 
	C685.781250,554.438660 686.998718,556.242371 686.985718,560.902649 
	C686.873474,601.225037 686.972412,641.548035 687.000977,681.870850 
	C687.006165,689.192871 686.990417,689.187622 679.909851,689.179749 
	C654.416443,689.151428 628.916504,689.474487 603.431458,688.998535 
	C580.129944,688.563416 558.210022,682.923706 539.578186,668.066345 
	C519.304993,651.899841 508.820282,630.464600 506.664520,604.812378 
	C503.016205,561.400146 520.647217,526.343567 550.098877,496.292084 
	C574.195862,471.704254 603.026062,453.898773 634.283081,439.857605 
	C644.616882,435.215454 655.135376,431.021790 666.158936,427.039856 
z"/>
</svg>